<svg xmlns="http://www.w3.org/2000/svg" xmlns:xlink="http://www.w3.org/1999/xlink" viewBox="0 0 155.63396 179.71062">
  <defs>
    <radialGradient xlink:href="#a" id="f" gradientUnits="userSpaceOnUse" gradientTransform="matrix(.0142 -1.5297 1.71535 .01591 -1033.5146 1628.7627)" cx="414.02301" cy="687.40204" fx="414.02301" fy="687.40204" r="86.830666"/>
    <linearGradient id="a">
      <stop offset="0" stop-color="#9558b2"/>
      <stop offset="1" stop-color="#fff" stop-opacity="0"/>
    </linearGradient>
    <radialGradient xlink:href="#b" id="e" gradientUnits="userSpaceOnUse" gradientTransform="matrix(1.72341 -.00186 .00163 1.51192 -998.84418 55.629175)" cx="580.789" cy="628.65375" fx="580.789" fy="628.65375" r="86.830666"/>
    <linearGradient id="b">
      <stop offset="0" stop-color="#cb3c33"/>
      <stop offset="1" stop-color="#fff" stop-opacity="0"/>
    </linearGradient>
    <radialGradient xlink:href="#c" id="d" gradientUnits="userSpaceOnUse" gradientTransform="matrix(-1.26566 1.227 -1.1253 -1.16075 1436.5452 1012.4852)" cx="499.3504" cy="645.45337" fx="499.3504" fy="645.45337" r="86.830666"/>
    <linearGradient id="c">
      <stop offset="0" stop-color="#389826"/>
      <stop offset="1" stop-color="#fff" stop-opacity="0"/>
    </linearGradient>
  </defs>
  <path d="M155.17530024 134.51811l-77.358322 44.6629L.4586607 134.51811l4e-7-89.32565L77.81697923.52962l77.358321 44.66284z" fill="#fff"/>
  <path d="M152.82938 1005.652l-75.072644 43.3432-75.072645-43.3432 4e-7-86.68644 75.0726456-43.34321 75.072643 43.34322z" fill="none" stroke="url(#d)" stroke-width="4.45108843" transform="translate(2.4e-7 -872.65159)"/>
  <path d="M152.82938 1005.652l-75.072644 43.3432-75.072645-43.3432 4e-7-86.68644 75.0726456-43.34321 75.072643 43.34322z" fill="none" stroke="url(#e)" stroke-width="4.45108843" transform="translate(2.4e-7 -872.65159)"/>
  <path d="M152.82938 1005.652l-75.072644 43.3432-75.072645-43.3432 4e-7-86.68644 75.0726456-43.34321 75.072643 43.34322z" fill="none" stroke="url(#f)" stroke-width="4.45108843" transform="translate(2.4e-7 -872.65159)"/>
  <path d="M155.17530024 134.51811l-77.358322 44.6629L.4586607 134.51811l4e-7-89.32565L77.81697923.52962l77.358321 44.66284z" fill="none" stroke="#1a1a1a" stroke-width=".91732138"/>
  <path style="line-height:125%;-inkscape-font-specification:'Comfortaa, Normal';text-align:start" d="M66.12663824 31.50593q1.4163 0 2.54934.61373 1.156646.59012 1.817586 1.65235.684545 1.06222.684545 2.3841 0 1.25107-.684545 2.24248-.66094.99141-1.793981 1.53432 1.628746.4485 2.572946 1.62875.9442 1.15664.9442 2.92702 0 1.58153-.731755 2.8326-.731755 1.22746-2.030031 1.93561-1.27467.68454-2.92702.68454h-6.019275q-.4721 0-.75536-.23605-.28326-.25965-.28326-.68454V32.42652q0-.40128.259655-.66094.259655-.25965.66094-.25965h5.736015zm0 7.69523q1.439905 0 2.336895-.80257.920595-.82618.920595-2.24248 0-1.36909-.89699-2.12445t-2.3605-.75536h-4.81542v5.92486h4.81542zm.401285 8.9699q1.723165 0 2.78539-.99141 1.085831-1.01502 1.085831-2.69097 0-1.60514-1.085831-2.54934-1.062225-.96781-2.78539-.96781h-5.216705v7.19953h5.216705zM75.97840924 37.95009q0-.40128.25965-.66094.25966-.25965.66094-.25965.40129 0 .63734.25965.25965.25966.25965.66094v11.07075q0 .40128-.25965.66094-.23605.25965-.63734.25965-.40128 0-.66094-.25965-.25965-.25966-.25965-.66094V37.95009zm.92059-5.94846q.51931 0 .89699.35408.37768.35407.37768.92059 0 .54292-.37768.9206t-.92059.37768q-.54292 0-.9206-.37768-.35407-.37768-.35407-.9206 0-.56652.37768-.92059.37768-.35408.92059-.35408zM88.30168924 36.91147q1.8648 0 3.35191.84978 1.48712.84978 2.3369 2.3605.87338 1.51072.87338 3.37552 0 1.86479-.84978 3.37551-.84978 1.48712-2.3605 2.3369-1.48711.84978-3.35191.84978-1.86479 0-3.37551-.84978-1.48712-.84978-2.3369-2.3369-.84978-1.51072-.84978-3.37551 0-1.8648.84978-3.37552.84978-1.51072 2.3369-2.3605 1.51072-.84978 3.37551-.84978zm0 1.65235q-1.34548 0-2.45492.63734-1.08583.63733-1.72316 1.77037-.61373 1.10944-.61373 2.52574 0 1.39269.61373 2.52573.63733 1.10944 1.72316 1.74677 1.10944.63734 2.45492.63734 1.36909 0 2.45492-.63734 1.08583-.63733 1.69956-1.74677.61373-1.13304.61373-2.52573 0-1.4163-.61373-2.52574-.61373-1.13304-1.69956-1.77037-1.08583-.63734-2.45492-.63734zM32.10202924 56.37876q1.864795 0 3.281095.82618 1.4163.82617 2.21887 2.14805.165235.25966.165235.56652 0 .4485-.42489.70815-.18884.0944-.42489.0944-.259655 0-.495705-.11802-.212445-.14163-.354075-.37768-1.32188-2.07724-3.989245-2.10085-1.912005 0-3.02144.80257-1.109435.80257-1.109435 2.28969 0 2.76178 4.461345 3.35191 2.92702.42489 4.366925 1.79398t1.439905 3.61156q0 1.65235-.80257 2.85621-.80257 1.20385-2.195265 1.84119-1.392695.61373-3.11586.61373-2.242475 0-3.989245-.9442-1.723165-.96781-2.478525-2.59655-.09442-.16524-.09442-.37768 0-.33047.23605-.54292.259655-.23605.684545-.23605.28326 0 .51931.16524.259655.14163.37768.42489.542915 1.06222 1.79398 1.72316 1.27467.63734 2.950625.63734 1.93561 0 3.11586-.9206 1.18025-.9442 1.18025-2.62015 0-1.48712-1.109435-2.50213-1.08583-1.01502-3.281095-1.29828-2.73818-.33047-4.319715-1.69956-1.55793-1.39269-1.55793-3.39912 0-1.4163.75536-2.47852.778965-1.08583 2.12445-1.65235 1.36909-.59013 3.092255-.59013zM51.93281224 62.2092q.542915.21244.542915.68454 0 .21245-.09442.42489l-7.64802 16.80677q-.212445.54291-.684545.54291-.23605 0-.42489-.0944-.542915-.21244-.542915-.70815 0-.21244.09442-.42489l2.336895-5.1695v-.0236l-5.263915-10.90551q-.09442-.18884-.09442-.42489 0-.49571.51931-.70815.18884-.0944.42489-.0944.495705 0 .70815.4957l4.602975 9.70166 4.39053-9.67805q.23605-.51931.70815-.51931.212445 0 .42489.0944zM68.38144224 61.99675q1.392695 0 2.45492.66094 1.08583.66094 1.675955 1.8884.61373 1.20386.61373 2.809v6.79824q0 .40128-.259655.66094-.23605.23605-.637335.23605t-.66094-.23605q-.259655-.25966-.259655-.66094v-6.79824q0-1.67596-.873385-2.64376-.84978-.99141-2.242475-.99141-1.487115 0-2.40771.99141-.920595.99141-.89699 2.59655v6.84544q0 .40128-.259655.66094-.23605.23605-.637335.23605t-.66094-.23605q-.259655-.25966-.259655-.66094v-6.79824q0-1.67596-.873385-2.64376-.84978-.99141-2.242475-.99141-1.46351 0-2.407711.9678-.9442.96781-.9442 2.47853v6.98708q0 .40128-.259655.66094-.23605.23605-.637335.23605t-.66094-.23605q-.259655-.25966-.259655-.66094V63.05897q0-.40129.259655-.66094.259655-.25966.66094-.25966.401285 0 .637335.25966.259655.25965.259655.66094v.51931q.66094-.75536 1.55793-1.15665.920596-.42489 1.982821-.42489 1.298275 0 2.336895.59013 1.03862.59012 1.65235 1.65235.684545-1.06223 1.770375-1.65235 1.109435-.59013 2.478525-.59013zM77.16876924 62.82293q-.0236.0708-.0236.21244v5.54718q0 1.84119.84978 3.35191.87338 1.51072 2.3605 2.3841 1.51072.84978 3.35191.84978t3.3283-.84978q1.51072-.87338 2.3605-2.3841.87339-1.51072.87339-3.35191t-.84978-3.32831q-.82618-1.51072-2.28969-2.3605-1.4399-.87338-3.23388-.87338-1.53433 0-2.809.66094-1.27467.63733-2.10084 1.77037v-6.91626q0-.40129-.25966-.66094-.25965-.25966-.66094-.25966-.40128 0-.66094.25966-.23605.25965-.23605.66094v5.28752zm6.53859 10.69306q-1.34549 0-2.43132-.63733-1.08583-.66094-1.72316-1.77038-.61373-1.13304-.61373-2.52573 0-.40129.0236-.59013.0236-.0472.0236-.11802.23605-1.84119 1.53432-3.02144 1.32188-1.18025 3.18668-1.18025 1.34548 0 2.43131.63733 1.10944.63734 1.72317 1.77038.63733 1.10943.63733 2.50213 0 1.39269-.63733 2.52573-.61373 1.10944-1.72317 1.77038-1.08583.63733-2.43131.63733zM99.71228924 62.02036q1.864801 0 3.351911.84978 1.48712.84978 2.3369 2.3605.87338 1.51072.87338 3.37551 0 1.8648-.84978 3.37552-.84978 1.48711-2.3605 2.33689-1.48711.84978-3.351911.84978-1.86479 0-3.37551-.84978-1.48712-.84978-2.3369-2.33689-.84978-1.51072-.84978-3.37552 0-1.86479.84978-3.37551.84978-1.51072 2.3369-2.3605 1.51072-.84978 3.37551-.84978zm0 1.65235q-1.34548 0-2.45492.63733-1.08583.63734-1.72316 1.77038-.61374 1.10943-.61374 2.52573 0 1.3927.61374 2.52574.63733 1.10943 1.72316 1.74677 1.10944.63733 2.45492.63733 1.369091 0 2.454921-.63733 1.08583-.63734 1.69956-1.74677.61373-1.13304.61373-2.52574 0-1.4163-.61373-2.52573-.61373-1.13304-1.69956-1.77038-1.08583-.63733-2.454921-.63733zM109.31436024 57.5118q0-.40128.25965-.63733.25966-.25966.63734-.25966.40128 0 .63733.25966.25966.23605.25966.63733v13.45485q0 1.01502.40128 1.65235.42489.63734 1.06223.63734h.59012q.35408 0 .56652.25965.21245.23605.21245.63734 0 .40128-.30687.66094-.28326.23605-.75536.23605h-.30686q-1.43991 0-2.3605-1.13304-.89699-1.15665-.89699-2.95063V57.5118zM120.93282024 62.02036q1.55793 0 2.71457.54291 1.15665.51931 1.8648 1.46351.18884.30687.18884.54292 0 .40128-.37768.63733-.16524.11803-.4485.11803-.4957 0-.82617-.35408-1.15665-1.32188-3.16307-1.32188-1.29828 0-2.07724.54292-.77897.51931-.77897 1.32188 0 .84978.73176 1.36909.73175.4957 2.59655.80257 2.52573.42489 3.61156 1.39269 1.08583.9442 1.08583 2.3605 0 1.08583-.66094 1.93561-.63733.84978-1.79398 1.32188-1.15664.4721-2.62015.4721-1.46351 0-2.809-.4957-1.34548-.49571-2.17166-1.3927-.23605-.28326-.23605-.54291 0-.40129.37768-.70815.28326-.21245.59013-.21245.40128 0 .68454.33047.56652.66094 1.48712 1.01502.9442.35407 2.07724.35407 1.65235 0 2.47852-.56652.82618-.56652.84978-1.48711 0-.84978-.82617-1.4163-.82618-.56652-2.62016-.84978-2.31329-.37768-3.46993-1.29828-1.13304-.9442-1.13304-2.26608 0-1.72316 1.32188-2.66736 1.34548-.9442 3.35191-.9442z" font-weight="400" font-size="23.60500145" font-family="Comfortaa" letter-spacing="0" word-spacing="0" fill="#1a1a1a"/>
  <path d="M26.20608924 105.46981l-6.082792 3.45844-6.036491-3.53864.0463-6.99707 6.082792-3.45844 6.036492 3.53864zM26.20875758 105.44700184l.04485836-6.88575023 6.56260015-2.08515107 4.01105108 5.59705653-4.08363385 5.54432173z" fill="#cb3c33" fill-rule="evenodd"/>
  <path d="M25.15476024 99.08406v5.65099" fill="none" stroke="#000" stroke-width=".42183492"/>
  <path style="line-height:125%;-inkscape-font-specification:'sans-serif, Normal';text-align:start" d="M13.13185724 96.81369h.504806l1.228609 2.31803v-2.31803h.363757v2.77087h-.504806l-1.228609-2.31802v2.31802h-.363757v-2.77087zM19.07743224 107.11228h.504806l1.228609 2.31802v-2.31802h.363758v2.77086h-.504806l-1.228609-2.31802v2.31802h-.363758v-2.77086zM31.60560024 95.2211h.504806l1.228609 2.31803V95.2211h.363757v2.77087h-.504806l-1.228609-2.31802v2.31802h-.363757V95.2211zM31.49942924 105.73203h.504806l1.228609 2.31802v-2.31802h.363758v2.77087h-.504806l-1.228609-2.31803v2.31803h-.363758v-2.77087zM31.49200624 108.81101h.374893v1.13581h1.362234v-1.13581h.374893v2.77087h-.374893v-1.31955h-1.362234v1.31955h-.374893v-2.77087z" font-weight="400" font-size="3.80089307" font-family="sans-serif" letter-spacing="0" word-spacing="0"/>
  <path style="line-height:125%;-inkscape-font-specification:'sans-serif, Normal';text-align:start" d="M18.96440724 87.72757h.504806l1.228609 2.31803v-2.31803h.363757v2.77087h-.504806l-1.228609-2.31803v2.31803h-.363757v-2.77087zM21.80765324 87.72757h.374893v1.13582h1.362234v-1.13582h.374893v2.77087h-.374893v-1.31955h-1.362234v1.31955h-.374893v-2.77087z" font-weight="400" font-family="sans-serif" letter-spacing="0" word-spacing="0"/>
  <path style="line-height:125%;-inkscape-font-specification:'sans-serif, Normal';text-align:start" d="M24.76680024 91.05354h.850469v.20508h-1.143609v-.20508q.138729-.14355.377584-.38482.240061-.24247.301585-.31244.117014-.13149.162855-.22197.04705-.0917.04705-.17974 0-.14356-.101332-.23403-.100126-.0905-.261775-.0905-.114603 0-.242474.0398-.126666.0398-.271426.12064v-.2461q.147173-.0591.275045-.0893.127871-.0302.234029-.0302.279871 0 .446345.13994.166475.13994.166475.37396 0 .11099-.04222.21111-.04101.0989-.150792.23403-.03016.035-.191808.20267-.161649.16647-.455996.46685z" font-weight="400" font-size="2.47058034" font-family="sans-serif" letter-spacing="0" word-spacing="0" baseline-shift="sub"/>
  <path d="M15.52422424 97.62976l4.601795-2.72196 6.055928 3.49639v6.90837l-4.62246 2.66877M26.17776324 105.31256l5.058006 1.77067M26.23084824 98.41144l5.096205-1.53947M33.87515524 98.03985l2.972786 3.98141-3.078957 4.18048M18.67944024 108.04646l-4.578623-2.68082.01327-5.68014M20.07293224 94.85472v-3.98141M16.19769424 98.09293l3.609811-2.12342M14.92364224 104.7817l3.503642 1.91108M33.18504424 98.72996l2.441932 3.2913" fill="none" stroke="#000" stroke-width=".45610717"/>
  <path style="line-height:125%" d="M20.08121524 99.87753l-.813628 2.2063h1.630226l-.816598-2.2063zm-.338517-.59092h.680004l1.689615 4.43339h-.623584l-.403844-1.1373h-1.998439l-.403845 1.1373h-.632492l1.692585-4.43339z" font-weight="400" font-family="sans-serif" letter-spacing="0" word-spacing="0"/>
  <path d="M63.71457124 106.08992l-6.758031 3.84235-6.70659-3.93145.05144-7.7738 6.75803-3.84235 6.706591 3.93145z" fill="#389826" fill-rule="evenodd"/>
  <path d="M62.43806524 97.61201l-5.375117-3.19516-6.714347 3.83677-.0417 7.75695 4.295512 2.50224" fill="none" stroke="#000" stroke-width=".50673872"/>
  <path style="line-height:125%;-inkscape-font-specification:'sans-serif, Normal';text-align:start" d="M55.82779224 86.6626h.560844l1.364994 2.57535V86.6626h.404138v3.07845h-.560844l-1.364994-2.57534v2.57534h-.404138V86.6626zM58.98666224 86.6626h.416509v1.2619h1.513453v-1.2619h.416508v3.07845h-.416508v-1.46602h-1.513453v1.46602h-.416509V86.6626z" font-weight="400" font-family="sans-serif" letter-spacing="0" word-spacing="0"/>
  <path style="line-height:125%;-inkscape-font-specification:'sans-serif, Normal';text-align:start" d="M62.27429824 90.35778h.944878v.22784h-1.270559v-.22784q.154129-.15949.419499-.42754.26671-.26939.335063-.34713.130004-.14609.180934-.2466.05227-.10186.05227-.1997 0-.15949-.112581-.26001-.111241-.10052-.290835-.10052-.127324 0-.269391.0442-.140726.0442-.301556.13402v-.27341q.163511-.0657.305577-.0992.142067-.0335.260009-.0335.310938 0 .495893.15547.184955.15547.184955.41547 0 .12331-.04691.23455-.04557.1099-.167532.26001-.03351.0389-.2131.22516-.179593.18495-.506615.51868z" font-weight="400" font-size="2.74483466" font-family="sans-serif" letter-spacing="0" word-spacing="0" baseline-shift="sub"/>
  <path d="M57.05937524 94.58095v-4.42338" fill="none" stroke="#000" stroke-width=".50673872"/>
  <path style="line-height:125%;-inkscape-font-specification:'sans-serif, Normal';text-align:start" d="M62.86143024 96.43177h.560844l1.364994 2.57534v-2.57534h.404138v3.07845h-.560844l-1.364994-2.57534v2.57534h-.404138v-3.07845zM55.41735424 108.1189h.560844l1.364994 2.57534v-2.57534h.404137v3.07845h-.560843l-1.364995-2.57534v2.57534h-.404137v-3.07845zM55.40910724 111.53968h.416508v1.26189h1.513453v-1.26189h.416509v3.07845h-.416509v-1.46603h-1.513453v1.46603h-.416508v-3.07845z" font-weight="400" font-size="4.22282267" font-family="sans-serif" letter-spacing="0" word-spacing="0"/>
  <path d="M58.39747624 109.01326l5.254705-2.96099.08341-6.13049" fill="none" stroke="#000" stroke-width=".50673872"/>
  <path d="M63.61054724 105.35032l3.399788 3.18911" fill="none" stroke="#000" stroke-width=".54706061"/>
  <path d="M63.07746824 106.31688l3.226161 3.02624" fill="none" stroke="#000" stroke-width=".50673872"/>
  <path style="line-height:125%;-inkscape-font-specification:'sans-serif, Normal';text-align:start" d="M68.33388824 108.56685q-.453624 0-.721674.33816-.265988.33815-.265988.92168 0 .58146.265988.91961.26805.33816.721674.33816.453623 0 .71755-.33816.265988-.33815.265988-.91961 0-.58353-.265988-.92168-.263927-.33816-.71755-.33816zm0-.33816q.647444 0 1.035086.43507.387642.433.387642 1.16293 0 .72786-.387642 1.16292-.387642.43301-1.035086.43301-.649506 0-1.03921-.43301-.387642-.433-.387642-1.16292 0-.72993.387642-1.16293.389704-.43507 1.03921-.43507z" font-weight="400" font-size="4.22282267" font-family="sans-serif" letter-spacing="0" word-spacing="0"/>
  <path style="line-height:125%" d="M58.47520524 99.95383v.70271q-.336506-.31341-.719199-.46847-.379395-.15506-.808275-.15506-.844565 0-1.293239.51796-.448675.51465-.448675 1.49118 0 .97323.448675 1.49119.448674.51465 1.293239.51465.42888 0 .808275-.15505.382693-.15506.719199-.46847v.6961q-.349702.23754-.742293.3563-.389291.11877-.82477.11877-1.118388 0-1.761709-.68291-.64332-.68621-.64332-1.87058 0-1.18767.64332-1.87058.643321-.68621 1.761709-.68621.442077 0 .831368.11877.392591.11547.735695.3497z" font-weight="400" font-family="sans-serif" letter-spacing="0" word-spacing="0"/>
  <path d="M98.60822724 106.34706l-6.099156 3.46775-6.052731-3.54816.04642-7.01589 6.099156-3.46774 6.052731 3.54815zM98.6109065 106.32421538l.04497903-6.90427427 6.58025483-2.09076056 4.02184162 5.6121137-4.09461961 5.55923707z" fill="#9558b2" fill-rule="evenodd"/>
  <path d="M97.55406924 99.94416v5.66619" fill="none" stroke="#000" stroke-width=".42296973"/>
  <path style="line-height:125%;-inkscape-font-specification:'sans-serif, Normal';text-align:start" d="M82.41158924 97.56118h.3759v1.13887h1.3659v-1.13887h.3759v2.77832h-.3759v-1.32309h-1.3659v1.32309h-.3759v-2.77832zM85.27737924 97.56118h.50616l1.23191 2.32427v-2.32427h.36474v2.77832h-.50616l-1.23192-2.32426v2.32426h-.36473v-2.77832zM91.46040924 107.99392h.50617l1.23191 2.32426v-2.32426h.36474v2.77832h-.50617l-1.23191-2.32426v2.32426h-.36474v-2.77832zM104.02228024 96.07083h.50616l1.23192 2.32426v-2.32426h.36474v2.77832h-.50617l-1.23191-2.32426v2.32426h-.36474v-2.77832zM103.91582024 106.61001h.50616l1.23192 2.32426v-2.32426h.36473v2.77832h-.50616l-1.23191-2.32426v2.32426h-.36474v-2.77832zM103.90837024 109.69723h.37591v1.13887h1.36589v-1.13887h.37591v2.77832h-.37591v-1.3231h-1.36589v1.3231h-.37591v-2.77832z" font-weight="400" font-size="3.81111836" font-family="sans-serif" letter-spacing="0" word-spacing="0"/>
  <path d="M87.89762924 98.48595l4.61418-2.72928 6.07221 3.50579v6.92695l-4.63489 2.67596M98.57982924 106.18941l5.071611 1.77544M98.63305924 99.26973l5.109911-1.54362M106.29793024 98.89714l2.98078 3.99212-3.08724 4.19172M91.06132924 108.93067l-4.59094-2.68803.0133-5.69543" fill="none" stroke="#000" stroke-width=".45733419"/>
  <path d="M92.00691924 95.96691v-3.80393" fill="none" stroke="#000" stroke-width=".4464246"/>
  <path d="M88.57290924 98.95036l3.61953-2.12913M87.29542924 105.65713l3.51307 1.91622M105.60596024 99.5891l2.4485 3.30016" fill="none" stroke="#000" stroke-width=".45733419"/>
  <path style="line-height:125%;-inkscape-font-specification:'sans-serif, Normal';text-align:start" d="M92.53569924 89.22244q-.40939 0-.65131.30519-.24006.30518-.24006.83182 0 .52477.24006.82996.24192.30518.65131.30518.4094 0 .6476-.30518.24005-.30519.24005-.82996 0-.52664-.24005-.83182-.2382-.30519-.6476-.30519zm0-.30519q.58433 0 .93417.39265.34985.39079.34985 1.04955 0 .65689-.34985 1.04954-.34984.39079-.93417.39079-.58618 0-.93789-.39079-.34985-.39079-.34985-1.04954 0-.65876.34985-1.04955.35171-.39265.93789-.39265z" font-weight="400" font-size="3.81111836" font-family="sans-serif" letter-spacing="0" word-spacing="0"/>
  <path d="M93.00991924 96.10766v-3.99212" fill="none" stroke="#000" stroke-width=".45733419"/>
  <path style="line-height:125%;-inkscape-font-specification:'sans-serif, Normal';text-align:start" d="M78.66338924 108.96676h.37591v1.13887h1.36589v-1.13887h.37591v2.77832h-.37591v-1.3231h-1.36589v1.3231h-.37591v-2.77832z" font-weight="400" font-size="3.81111836" font-family="sans-serif" letter-spacing="0" word-spacing="0"/>
  <path style="line-height:125%" d="M81.63049924 112.30168h.85276v.20563h-1.14669v-.20563q.13911-.14394.3786-.38586.24071-.24313.3024-.31328.11733-.13185.16329-.22257.0472-.0919.0472-.18022 0-.14394-.10161-.23466-.10039-.0907-.26248-.0907-.11491 0-.24312.0399-.12701.0399-.27216.12095v-.24675q.14757-.0593.27578-.0895.12822-.0302.23466-.0302.28063 0 .44755.14031t.16692.37497q0 .11128-.0423.21168-.0411.0992-.1512.23466-.0302.0351-.19233.20321-.16208.16692-.45722.46811z" font-weight="400" font-size="2.47722697" font-family="sans-serif" letter-spacing="0" word-spacing="0" baseline-shift="sub"/>
  <path style="line-height:125%;-inkscape-font-specification:'sans-serif, Normal';text-align:start" d="M83.10646924 108.96676h.50617l1.23191 2.32426v-2.32426h.36474v2.77832h-.50617l-1.23191-2.32426v2.32426h-.36474v-2.77832z" font-weight="400" font-size="3.81111836" font-family="sans-serif" letter-spacing="0" word-spacing="0"/>
  <path d="M86.40639924 106.265l-2.66141 1.96944" fill="none" stroke="#000" stroke-width=".45733419"/>
  <path style="line-height:125%" d="M93.71391924 104.2343v-1.19395h-.98256v-.49425h1.57804v1.90853q-.34836.24713-.76818.37516-.41981.12505-.8962.12505-1.04211 0-1.63164-.6074-.58655-.61037-.58655-1.69713 0-1.08975.58655-1.69714.58953-.61038 1.63164-.61038.4347 0 .82475.10719.39302.10719.72351.31561v.64015q-.33347-.28286-.70863-.42578-.37515-.14291-.78902-.14291-.81582 0-1.2267.45555-.40791.45554-.40791 1.35771 0 .89918.40791 1.35473.41088.45555 1.2267.45555.31859 0 .56869-.0536.25011-.0566.4496-.17269z" font-weight="400" font-family="sans-serif" letter-spacing="0" word-spacing="0"/>
  <path d="M137.71534024 105.49522l-6.23234 3.54346-6.18489-3.62563.0474-7.16909 6.23233-3.54346 6.1849 3.62563z" fill="#4063d8" fill-rule="evenodd"/>
  <path d="M136.53811024 97.67681l-4.95699-2.94662-6.19205 3.53831-.0385 7.15355 3.96137 2.3076M130.87074024 95.15348v-4.07929" fill="none" stroke="#000" stroke-width=".46732035"/>
  <path style="line-height:125%;-inkscape-font-specification:'sans-serif, Normal';text-align:start" d="M136.92855024 96.58841h.51722l1.25881 2.37501v-2.37501h.3727v2.83899h-.51722l-1.25881-2.37502v2.37502h-.3727v-2.83899zM139.84170024 96.58841h.38411v1.16374h1.39572v-1.16374h.38411v2.83899h-.38411v-1.35199h-1.39572v1.35199h-.38411v-2.83899zM130.06353024 107.36636h.51722l1.25881 2.37502v-2.37502h.3727v2.83899h-.51722l-1.25881-2.37501v2.37501h-.3727v-2.83899zM130.05593024 110.52103h.38411v1.16373h1.39572v-1.16373h.38411v2.83898h-.38411v-1.35199h-1.39572v1.35199h-.38411v-2.83898z" font-weight="400" font-size="3.89433622" font-family="sans-serif" letter-spacing="0" word-spacing="0"/>
  <path d="M132.81183024 108.19117l4.84595-2.73066.0769-5.65361" fill="none" stroke="#000" stroke-width=".46732035"/>
  <path d="M137.61939024 104.81317l3.13532 2.94103" fill="none" stroke="#000" stroke-width=".50450569"/>
  <path d="M137.12778024 105.70454l2.9752 2.79083" fill="none" stroke="#000" stroke-width=".46732035"/>
  <path style="line-height:125%;-inkscape-font-specification:'sans-serif, Normal';text-align:start" d="M141.97532024 107.77952q-.41834 0-.66554.31185-.2453.31185-.2453.84999 0 .53623.2453.84808.2472.31185.66554.31185.41833 0 .66173-.31185.2453-.31185.2453-.84808 0-.53814-.2453-.84999-.2434-.31185-.66173-.31185zm0-.31185q.59708 0 .95457.40122.35748.39933.35748 1.07247 0 .67124-.35748 1.07246-.35749.39932-.95457.39932-.59898 0-.95837-.39932-.35749-.39932-.35749-1.07246t.35749-1.07247q.35939-.40122.95837-.40122z" font-weight="400" font-size="3.89433622" font-family="sans-serif" letter-spacing="0" word-spacing="0"/>
  <path style="line-height:125%" d="M129.61373024 99.48658h3.84262v.51722h-1.6125v4.02516h-.61762v-4.02516h-1.6125v-.51722z" font-weight="400" font-family="sans-serif" letter-spacing="0" word-spacing="0"/>
  <path d="M126.18100024 98.75182v6.03735M125.36515024 98.20791l-4.29686-2.33879" fill="none" stroke="#000" stroke-width=".46732035"/>
  <path d="M132.32714024 95.24363v-4.13368" fill="none" stroke="#000" stroke-width=".47042549"/>
  <path style="line-height:125%;-inkscape-font-specification:'sans-serif, Normal';text-align:start" d="M131.67635024 87.9094q-.41833 0-.66553.31186-.2453.31185-.2453.84998 0 .53623.2453.84808.2472.31185.66553.31185.41834 0 .66174-.31185.24529-.31185.24529-.84808 0-.53813-.24529-.84998-.2434-.31186-.66174-.31186zm0-.31185q.59708 0 .95457.40123.35749.39932.35749 1.07246 0 .67124-.35749 1.07246-.35749.39933-.95457.39933-.59898 0-.95837-.39933-.35749-.39932-.35749-1.07246t.35749-1.07246q.35939-.40123.95837-.40123z" font-weight="400" font-size="3.89433622" font-family="sans-serif" letter-spacing="0" word-spacing="0"/>
  <path d="M85.10542787 136.24988223l.03695317-5.67225932 5.40605878-1.71768001 3.30417447 4.6106751-3.3639663 4.56723354z" fill="#389826" fill-rule="evenodd"/>
  <path style="line-height:125%;-inkscape-font-specification:'sans-serif, Normal';text-align:start" d="M97.65763924 151.87171q-.33635 0-.5351.2508-.19721.2507-.19721.6834 0 .4311.19721.6818.19875.2507.5351.2507.33634 0 .53203-.2507.19722-.2507.19722-.6818 0-.4327-.19722-.6834-.19569-.2508-.53203-.2508zm0-.2507q.48005 0 .76747.3226.28742.321.28742.8623 0 .5396-.28742.8622-.28742.3211-.76747.3211-.48159 0-.77054-.3211-.28742-.321-.28742-.8622 0-.5413.28742-.8623.28895-.3226.77054-.3226zM105.29523024 149.46071q-.33634 0-.53509.2508-.19722.2507-.19722.6833 0 .4312.19722.6819.19875.2507.53509.2507.33635 0 .53204-.2507.19722-.2507.19722-.6819 0-.4326-.19722-.6833-.19569-.2508-.53204-.2508zm0-.2507q.48006 0 .76748.3226.28742.321.28742.8622 0 .5397-.28742.8623-.28742.3211-.76748.3211-.48158 0-.77053-.3211-.28742-.321-.28742-.8623 0-.5412.28742-.8622.28895-.3226.77053-.3226zM106.83324024 149.25131h.30883v.9356h1.12216v-.9356h.30882v2.2825h-.30882v-1.087h-1.12216v1.087h-.30883v-2.2825zM89.55120924 127.82611h.41584l1.01209 1.9095v-1.9095h.29965v2.2826h-.41584l-1.01209-1.9096v1.9096h-.29965v-2.2826zM89.54705924 125.42329h.30882v.93564h1.12217v-.93564h.30882v2.28252h-.30882v-1.08697h-1.12217v1.08697h-.30882v-2.28252z" font-weight="400" font-size="3.13105345" font-family="sans-serif" letter-spacing="0" word-spacing="0"/>
  <path style="line-height:125%;-inkscape-font-specification:'sans-serif, Normal';text-align:start" d="M101.50245024 138.02411h.41584l1.01209 1.9095v-1.9095h.29965v2.2826h-.41584l-1.01209-1.9096v1.9096h-.29965v-2.2826zM103.84462024 138.02411h.30883v.9356h1.12216v-.9356h.30883v2.2826h-.30883v-1.087h-1.12216v1.087h-.30883v-2.2826z" font-weight="400" font-family="sans-serif" letter-spacing="0" word-spacing="0"/>
  <path style="line-height:125%;-inkscape-font-specification:'sans-serif, Normal';text-align:start" d="M106.28227024 140.76391h.70059v.169h-.94207v-.169q.11429-.1182.31105-.317.19775-.1997.24843-.2574.0964-.1083.13416-.1828.0388-.076.0388-.1481 0-.1182-.0835-.1928-.0825-.075-.21564-.075-.0944 0-.19975.033-.10434.033-.22359.099v-.2027q.12124-.049.22658-.074.10533-.025.19278-.025.23055 0 .36769.1153.13713.1153.13713.3081 0 .091-.0348.1739-.0338.082-.12422.1927-.0248.029-.158.167-.13316.1371-.37564.3846z" font-weight="400" font-size="2.03518462" font-family="sans-serif" letter-spacing="0" word-spacing="0" baseline-shift="sub"/>
  <path d="M85.09672924 136.18721l5.29593 1.854M85.12362924 130.45421l4.1981-1.2682M91.42076924 130.14811l2.44889 3.2798-3.60985 4.5172" fill="none" stroke="#000" stroke-width=".3757264"/>
  <path d="M85.10324524 136.26861l-5.010809 2.849-4.972667-2.9151.03814-5.7639 5.010808-2.849 4.972667 2.915z" fill="#389826" fill-rule="evenodd" stroke="#000" stroke-width=".3757264"/>
  <path d="M92.85104924 133.34171l-2.68376 3.7573M84.17355924 135.75711l-4.02564 2.326M75.85389924 130.92641l.0895 4.6518M80.05845924 128.42151l4.02564 2.3259M90.16728924 137.90411l2.41539 5.6359 5.72535.8052 2.325921 5.3675 3.30998.5367" fill="none" stroke="#000" stroke-width=".3757264"/>
  <path d="M100.77388929 140.05141675l.74434125.63949958.74434105.63949942-2.03405328 1.61458836-2.03405296 1.61458758 1.28971171-2.25408717z"/>
  <path d="M100.45504024 149.31011l-2.236471 2.2365M101.21544024 149.89161l-2.281201 2.2365" fill="none" stroke="#000" stroke-width=".3757264"/>
  <path d="M118.58351024 135.38201l-4.89743 2.7845-4.86016-2.849.0373-5.6336 4.89744-2.78448 4.86015 2.84908z" fill="#cb3c33" fill-rule="evenodd" stroke="#000" stroke-width=".36722526"/>
  <path style="line-height:125%;-inkscape-font-specification:'sans-serif, Normal';text-align:start" d="M127.73972024 134.60631h.40644l.98918 1.8663v-1.8663h.29288v2.2309h-.40644l-.98919-1.8663v1.8663h-.29287v-2.2309zM130.02890024 134.60631h.30184v.9144h1.09677v-.9144h.30184v2.2309h-.30184v-1.0624h-1.09677v1.0624h-.30184v-2.2309z" font-weight="400" font-size="3.06021047" font-family="sans-serif" letter-spacing="0" word-spacing="0"/>
  <path style="line-height:125%" d="M132.41140024 137.28411h.68474v.1651h-.92076v-.1651q.1117-.1156.30401-.3098.19328-.1953.24281-.2516.0942-.1059.13112-.1787.0379-.074.0379-.1447 0-.1156-.0816-.1884-.0806-.073-.21076-.073-.0923 0-.19522.032-.10198.032-.21853.097v-.1982q.11849-.048.22144-.072.10296-.024.18843-.024.22533 0 .35936.1127.13404.1127.13404.3011 0 .089-.034.1699-.033.08-.12141.1885-.0243.028-.15443.1631-.13014.1341-.36713.3759z" font-weight="400" font-size="1.98913682" font-family="sans-serif" letter-spacing="0" word-spacing="0" baseline-shift="sub"/>
  <path style="line-height:125%;-inkscape-font-specification:'sans-serif, Normal';text-align:start" d="M133.94165024 121.85433q-.32873 0-.52299.24505-.19275.24506-.19275.66793 0 .42138.19275.66643.19426.24506.52299.24506.32873 0 .52-.24506.19275-.24505.19275-.66643 0-.42287-.19275-.66793-.19127-.24505-.52-.24505zm0-.24506q.46919 0 .75011.31529.28092.31379.28092.84275 0 .52747-.28092.84275-.28092.31379-.75011.31379-.47069 0-.7531-.31379-.28092-.31379-.28092-.84275t.28092-.84275q.28241-.31529.7531-.31529zM140.18005024 129.52661q-.32873 0-.52298.2451-.19276.245-.19276.6679 0 .4214.19276.6664.19425.2451.52298.2451.32874 0 .52-.2451.19276-.245.19276-.6664 0-.4229-.19276-.6679-.19126-.2451-.52-.2451zm0-.245q.4692 0 .75011.3152.28092.3138.28092.8428 0 .5275-.28092.8427-.28091.3138-.75011.3138-.47068 0-.7531-.3138-.28091-.3137-.28091-.8427t.28091-.8428q.28242-.3152.7531-.3152zM141.68326024 129.32191h.30184v.9145h1.09677v-.9145h.30184v2.2309h-.30184v-1.0624h-1.09677v1.0624h-.30184v-2.2309z" font-weight="400" font-size="3.06021047" font-family="sans-serif" letter-spacing="0" word-spacing="0"/>
  <path d="M113.74032024 127.88741l3.67225 2.1859M117.67488024 134.70731l-3.75969 2.1858M109.72709024 130.22021l.0874 4.5466M118.46179024 129.70601l5.0712-2.62303 5.07121 2.88533 5.24607-2.79789 4.98378 2.71049" fill="none" stroke="#000" stroke-width=".36722526"/>
  <path d="M129.41274822 134.39684465h-1.55059079l.7752954-4.6045972z"/>
  <path d="M133.33331024 127.37431v-3.0913M134.44617024 127.43611v-3.09128" fill="none" stroke="#000" stroke-width=".36722526"/>
  <path d="M60.03132643 149.1714413l-5.48606525-.30265436-2.48092649-4.90239859 3.0051387-4.59974455 5.48606501.30265408 2.48092612 4.90239849z" fill="#9558b2" fill-rule="evenodd" stroke="#000" stroke-width=".35814"/>
  <path style="line-height:125%;-inkscape-font-specification:'sans-serif, Normal';text-align:start" d="M67.94896224 153.36981l.333264.2146-.17431 2.0527.985434-1.5304.240149.1546-1.177942 1.8294-.333273-.2147.174313-2.0526-.985428 1.5303-.240149-.1546 1.177942-1.8293zM69.82605524 154.57851l.247498.1594-.482859.7498.899346.5792.482858-.7499.247497.1594-1.177942 1.8293-.247497-.1594.560959-.8712-.899345-.5791-.56096.8712-.247497-.1594 1.177942-1.8293z" font-weight="400" font-size="2.98456216" font-family="sans-serif" letter-spacing="0" word-spacing="0"/>
  <path style="line-height:125%" d="M70.36574224 158.03231l.561474.3615-.08718.1354-.755002-.4862.08718-.1353q.152611-.036.412873-.093.261566-.058.331928-.078.133166-.037.201877-.077.07-.041.107437-.099.06103-.095.03257-.1977-.02765-.1022-.134382-.1709-.07567-.049-.177028-.077-.100602-.027-.230463-.036l.104619-.1625q.12228.024.219533.058.09725.034.167339.08.184767.119.235184.2821.05042.1632-.04907.3177-.04721.073-.11766.1214-.06914.048-.199048.09-.03481.01-.212785.052-.17749.041-.49951.1143z" font-weight="400" font-size="1.93996537" font-family="sans-serif" letter-spacing="0" word-spacing="0" baseline-shift="sub"/>
  <path style="line-height:125%;-inkscape-font-specification:'sans-serif, Normal';text-align:start" d="M79.76760924 146.18811q-.26956-.1736-.55824-.075-.28745.099-.51073.4459-.22249.3455-.19382.6482.0299.3035.29945.4771.26956.1736.55578.074.28744-.099.50993-.4447.22328-.3467.19462-.6494-.0274-.302-.29699-.4755zm.12939-.201q.38473.2478.4486.6546.0647.4057-.21463.8394-.27851.4325-.67533.5427-.39604.109-.78077-.1387-.38595-.2486-.45184-.655-.0647-.4056.21463-.8393.2793-.4338.67533-.5428.39805-.1094.78401.1391zM80.83193924 155.77321q-.26956-.1736-.55824-.075-.28744.099-.51072.4459-.2225.3455-.19383.6482.0299.3036.29945.4771.26955.1736.55578.074.28745-.099.50994-.4447.22328-.3467.19461-.6494-.0274-.3019-.29699-.4755zm.12939-.201q.38473.2478.4486.6546.0647.4057-.21463.8394-.27851.4325-.67533.5427-.39604.109-.78077-.1387-.38595-.2486-.45184-.655-.0647-.4056.21463-.8394.2793-.4337.67534-.5427.39804-.1094.784.1391zM82.17263924 156.39901l.24749.1594-.48285.7499.89935.5791.48285-.7499.2475.1594-1.17794 1.8293-.2475-.1594.56096-.8711-.89934-.5791-.56096.8711-.2475-.1594 1.17794-1.8293z" font-weight="400" font-size="2.98456216" font-family="sans-serif" letter-spacing="0" word-spacing="0"/>
  <path d="M60.01726224 140.46861l1.857034 3.7314M59.64256424 148.13831l-4.237047-.1928M55.49472424 140.26251l-2.328954 3.7743M62.92854824 144.45281l5.543307.5268 2.634825 5.0436 5.779029.4758 2.65546 4.854" fill="none" stroke="#000" stroke-width=".35814747"/>
  <path d="M69.43137763 154.08147652l-1.271462-.81872782 3.06700606-3.36633916z"/>
  <path d="M76.35415924 150.39321l1.63223-2.5348M77.23404924 151.03151l1.63223-2.5348" fill="none" stroke="#000" stroke-width=".35814747"/>
  <path style="line-height:125%;-inkscape-font-specification:'sans-serif, Normal';text-align:start" d="M45.96392524 141.68931l.247506.1594-.482859.7499.899338.5791.482858-.7499.247497.1594-1.177942 1.8293-.247498-.1594.56096-.8711-.899337-.5791-.56096.8711-.247506-.1594 1.177943-1.8293zM48.48523524 143.55031q-.269559-.1735-.55823-.075-.287449.099-.510731.446-.222491.3455-.193828.6482.02989.3035.29945.4771.269559.1736.555781.074.287449-.099.50994-.4447.223282-.3468.194618-.6495-.02744-.3019-.297-.4755zm.129393-.2009q.384728.2477.448609.6546.06466.4056-.214637.8394-.278509.4325-.675327.5427-.396037.1089-.780765-.1388-.385955-.2485-.451845-.6549-.06467-.4057.214628-.8394.279299-.4338.675336-.5427.398046-.1094.784001.1391z" font-weight="400" font-size="2.98456216" font-family="sans-serif" letter-spacing="0" word-spacing="0"/>
  <path d="M51.99790124 143.96031l-2.507136.1068" fill="none" stroke="#000" stroke-width=".35814747"/>
  <path d="M25.16704484 127.98530874l-6.67417811-1.52080221-.61606703-6.81747567 6.29343134-2.69263183 4.50561914 5.15333933z" fill="#4063d8"/>
  <path style="line-height:125%;-inkscape-font-specification:'sans-serif, Normal';text-align:start" d="M36.24192224 130.49471l.413746.1479.327649 2.26.679333-1.8999.298144.1066-.812047 2.271-.413746-.1479-.327648-2.2599-.679334 1.8998-.298144-.1066.812047-2.271zM38.57227924 131.32791l.307268.1099-.332869.9309 1.116502.3993.332869-.931.307268.1099-.812047 2.271-.307268-.1098.386716-1.0815-1.116502-.3993-.386716 1.0815-.307268-.1098.812047-2.2711z" font-weight="400" font-size="3.3084166" font-family="sans-serif" letter-spacing="0" word-spacing="0"/>
  <path style="line-height:125%" d="M40.02290724 134.92121l.697049.2492-.0601.1681-.937312-.3352.0601-.168q.155773-.077.422253-.2048.267818-.1284.338746-.1677.134441-.074.198526-.1342.06547-.061.09128-.1335.04207-.1177-.01447-.2215-.05548-.1035-.188025-.1509-.09397-.034-.210411-.038-.115472 0-.257819.019l.07212-.2017q.13796 0 .251593.01.113656.013.200662.044.229387.082.324827.2455.09543.1635.02684.3553-.03252.091-.09652.1606-.06261.069-.192175.1476-.035.02-.216604.1099-.181275.089-.510557.249z" font-weight="400" font-size="2.15047073" font-family="sans-serif" letter-spacing="0" word-spacing="0" baseline-shift="sub"/>
  <path style="line-height:125%;-inkscape-font-specification:'sans-serif, Normal';text-align:start" d="M47.19710324 119.77091q-.33465-.11966-.621588.0591-.285423.1793-.439348.60978-.153379.42895-.04636.74858.10854.32017.44319.43983.33465.11966.618548-.0602.285435-.17931.438814-.60826.153925-.43048.04689-.75011-.105499-.31908-.440149-.43874zm.0892-.24946q.477634.17079.648842.59399.171746.42169-.02079.96017-.191997.53695-.59273.75566-.400188.21718-.877822.0464-.47915-.17132-.652426-.59356-.171749-.42168.02079-.96016.19254-.53848.59273-.75567.402255-.21815.881406-.0468zM50.75502924 129.85191q-.33465-.1196-.621601.059-.285423.1793-.439348.6098-.153379.429-.04635.7486.108549.3202.443199.4398.334641.1197.618548-.06.285422-.1793.438802-.6082.153924-.4305.0469-.7501-.105504-.3191-.440145-.4388zm.0892-.2494q.477625.1708.648838.594.17175.4217-.02079.9601-.191998.537-.592727.7557-.400197.2172-.877822.046-.47916-.1713-.652426-.5936-.171759-.4216.02078-.9601.192543-.5385.59274-.7557.402249-.2181.881409-.047zM52.35979024 130.19071l.307258.1099-.332869.9309 1.116511.3992.332869-.9309.307259.1099-.812047 2.271-.307259-.1099.386716-1.0815-1.116511-.3992-.386716 1.0815-.307258-.1098.812047-2.2711z" font-weight="400" font-size="3.3084166" font-family="sans-serif" letter-spacing="0" word-spacing="0"/>
  <path d="M28.58078724 122.12917l6.11721-.8243 4.112161 4.78315 6.358872-.93867 4.08681 4.57326" fill="none" stroke="#000" stroke-width=".39700997"/>
  <path d="M38.02127978 130.89050704l-1.57848214-.5644129 2.46530783-4.4052157z"/>
  <path d="M44.56856224 125.16872l1.125222-3.14689M45.67893524 125.63673l1.125221-3.14688" fill="none" stroke="#000" stroke-width=".39700997"/>
  <path style="line-height:125%;-inkscape-font-specification:'sans-serif, Normal';text-align:start" d="M23.61951924 115.54111l.413746.14794.327649 2.25994.679333-1.89987.298144.1066-.812047 2.27104-.413745-.14794-.327649-2.25995-.679334 1.89988-.298143-.1066.812046-2.27104z" font-weight="400" font-size="3.3084166" font-family="sans-serif" letter-spacing="0" word-spacing="0"/>
  <path d="M17.73184524 119.67441l4.750534-1.91531M25.01935324 117.96353l3.559237 4.08351-3.477165 5.93437-4.20896-1.00305M17.73507924 119.52499l.614733 5.43994" fill="none" stroke="#000" stroke-width=".39700997"/>
  <path style="line-height:125%;-inkscape-font-specification:'sans-serif, Normal';text-align:start" d="M16.78451024 124.78898l.307268.10987-.332869.93093 1.116502.39922.332869-.93093.307268.10987-.812047 2.27107-.307268-.1099.386716-1.08152-1.116502-.39922-.386715 1.08152-.307268-.10987.812046-2.27104zM19.12703324 125.62659l.413746.14794.327649 2.25998.679333-1.89991.298144.1066-.812047 2.27101-.413746-.1479-.327645-2.25997-.679337 1.89987-.298144-.1066.812047-2.27102z" font-weight="400" font-size="3.3084166" font-family="sans-serif" letter-spacing="0" word-spacing="0"/>
</svg>
